{
  "accessors": [
    {
      "bufferView": 2,
      "componentType": 5126,
      "count": 369,
      "max": [
        10.904915809631348,
        132.98947143554688,
        17.039894104003906
      ],
      "min": [
        -10.90488338470459,
        108.49946594238281,
        3.1430585384368896
      ],
      "type": "VEC3"
    },
    {
      "bufferView": 2,
      "byteOffset": 4428,
      "componentType": 5126,
      "count": 369,
      "max": [
        0.6291854977607727,
        0.9999871850013733,
        0.9955886602401733
      ],
      "min": [
        -0.999669075012207,
        -0.31560584902763367,
        -0.996133029460907
      ],
      "type": "VEC3"
    },
    {
      "bufferView": 1,
      "componentType": 5126,
      "count": 369,
      "max": [
        0.9881160259246826,
        -0.008337999694049358
      ],
      "min": [
        0.009157000109553337,
        -0.9845529794692993
      ],
      "type": "VEC2"
    },
    {
      "bufferView": 0,
      "componentType": 5125,
      "count": 936,
      "type": "SCALAR"
    },
    {
      "bufferView": 2,
      "byteOffset": 8856,
      "componentType": 5126,
      "count": 415,
      "max": [
        29.11440086364746,
        139.25648498535156,
        26.92428207397461
      ],
      "min": [
        -29.114301681518555,
        7.335070610046387,
        -26.294116973876953
      ],
      "type": "VEC3"
    },
    {
      "bufferView": 2,
      "byteOffset": 13836,
      "componentType": 5126,
      "count": 415,
      "max": [
        0.9994955062866211,
        0.9960957765579224,
        0.9919081330299377
      ],
      "min": [
        -0.9942436814308167,
        -0.9940599203109741,
        -0.9919077754020691
      ],
      "type": "VEC3"
    },
    {
      "bufferView": 1,
      "byteOffset": 2952,
      "componentType": 5126,
      "count": 415,
      "max": [
        0.9867640137672424,
        -0.013117999769747257
      ],
      "min": [
        0.008035000413656235,
        -0.9925410151481628
      ],
      "type": "VEC2"
    },
    {
      "bufferView": 0,
      "byteOffset": 3744,
      "componentType": 5125,
      "count": 972,
      "type": "SCALAR"
    },
    {
      "bufferView": 2,
      "byteOffset": 18816,
      "componentType": 5126,
      "count": 642,
      "max": [
        26.680700302124023,
        114.76010131835938,
        17.1202392578125
      ],
      "min": [
        -26.68071174621582,
        49.68894958496094,
        -23.13814926147461
      ],
      "type": "VEC3"
    },
    {
      "bufferView": 2,
      "byteOffset": 26520,
      "componentType": 5126,
      "count": 642,
      "max": [
        0.9994955062866211,
        0.9899075627326965,
        0.9971646070480347
      ],
      "min": [
        -0.8362866640090942,
        -0.9998987317085266,
        -0.9971644878387451
      ],
      "type": "VEC3"
    },
    {
      "bufferView": 1,
      "byteOffset": 6272,
      "componentType": 5126,
      "count": 642,
      "max": [
        0.9914979934692383,
        -0.009669999592006207
      ],
      "min": [
        0.012749000452458858,
        -0.9891499876976013
      ],
      "type": "VEC2"
    },
    {
      "bufferView": 0,
      "byteOffset": 7632,
      "componentType": 5125,
      "count": 1464,
      "type": "SCALAR"
    },
    {
      "bufferView": 2,
      "byteOffset": 34224,
      "componentType": 5126,
      "count": 861,
      "max": [
        16.843751907348633,
        144.91348266601563,
        19.428922653198242
      ],
      "min": [
        -16.843849182128906,
        0.02749473787844181,
        -17.68817138671875
      ],
      "type": "VEC3"
    },
    {
      "bufferView": 2,
      "byteOffset": 44556,
      "componentType": 5126,
      "count": 861,
      "max": [
        0.9995965361595154,
        0.9997988939285278,
        0.9999995231628418
      ],
      "min": [
        -0.9996213912963867,
        -0.9996600151062012,
        -0.9999991655349731
      ],
      "type": "VEC3"
    },
    {
      "bufferView": 1,
      "byteOffset": 11408,
      "componentType": 5126,
      "count": 861,
      "max": [
        0.9854959845542908,
        -0.007973000407218933
      ],
      "min": [
        0.01082099974155426,
        -0.9916679859161377
      ],
      "type": "VEC2"
    },
    {
      "bufferView": 0,
      "byteOffset": 13488,
      "componentType": 5125,
      "count": 2058,
      "type": "SCALAR"
    },
    {
      "bufferView": 2,
      "byteOffset": 54888,
      "componentType": 5126,
      "count": 324,
      "max": [
        29.11440086364746,
        109.26197814941406,
        26.92428207397461
      ],
      "min": [
        -29.114301681518555,
        7.335070610046387,
        -17.769851684570313
      ],
      "type": "VEC3"
    },
    {
      "bufferView": 2,
      "byteOffset": 58776,
      "componentType": 5126,
      "count": 324,
      "max": [
        0.9989029169082642,
        0.9899075627326965,
        0.9950429201126099
      ],
      "min": [
        -0.7816712856292725,
        -0.9960829019546509,
        -0.9950608015060425
      ],
      "type": "VEC3"
    },
    {
      "bufferView": 1,
      "byteOffset": 18296,
      "componentType": 5126,
      "count": 324,
      "max": [
        0.9899380207061768,
        -0.010104999877512455
      ],
      "min": [
        0.008092000149190426,
        -0.9920179843902588
      ],
      "type": "VEC2"
    },
    {
      "bufferView": 0,
      "byteOffset": 21720,
      "componentType": 5125,
      "count": 774,
      "type": "SCALAR"
    },
    {
      "bufferView": 2,
      "byteOffset": 62664,
      "componentType": 5126,
      "count": 904,
      "max": [
        74.25288391113281,
        106.61697387695313,
        6.032474994659424
      ],
      "min": [
        -74.2530517578125,
        7.335080146789551,
        -26.294116973876953
      ],
      "type": "VEC3"
    },
    {
      "bufferView": 2,
      "byteOffset": 73512,
      "componentType": 5126,
      "count": 904,
      "max": [
        0.9998638033866882,
        0.9981943368911743,
        0.9993894696235657
      ],
      "min": [
        -0.6291002631187439,
        -0.9845841526985168,
        -0.9993898272514343
      ],
      "type": "VEC3"
    },
    {
      "bufferView": 1,
      "byteOffset": 20888,
      "componentType": 5126,
      "count": 904,
      "max": [
        0.9894369840621948,
        -0.0067159999161958694
      ],
      "min": [
        0.00774300005286932,
        -0.9920179843902588
      ],
      "type": "VEC2"
    },
    {
      "bufferView": 0,
      "byteOffset": 24816,
      "componentType": 5125,
      "count": 2070,
      "type": "SCALAR"
    },
    {
      "bufferView": 2,
      "byteOffset": 84360,
      "componentType": 5126,
      "count": 904,
      "max": [
        74.25288391113281,
        106.61697387695313,
        6.032474994659424
      ],
      "min": [
        -74.2530517578125,
        7.335080146789551,
        -26.294116973876953
      ],
      "type": "VEC3"
    },
    {
      "bufferView": 2,
      "byteOffset": 95208,
      "componentType": 5126,
      "count": 904,
      "max": [
        0.9998638033866882,
        0.9981943368911743,
        0.9993894696235657
      ],
      "min": [
        -0.6291002631187439,
        -0.9845841526985168,
        -0.9993898272514343
      ],
      "type": "VEC3"
    },
    {
      "bufferView": 1,
      "byteOffset": 28120,
      "componentType": 5126,
      "count": 904,
      "max": [
        0.9894369840621948,
        -0.0067159999161958694
      ],
      "min": [
        0.00774300005286932,
        -0.9920179843902588
      ],
      "type": "VEC2"
    },
    {
      "bufferView": 0,
      "byteOffset": 33096,
      "componentType": 5125,
      "count": 2070,
      "type": "SCALAR"
    },
    {
      "bufferView": 2,
      "byteOffset": 106056,
      "componentType": 5126,
      "count": 324,
      "max": [
        29.11440086364746,
        109.26197814941406,
        26.92428207397461
      ],
      "min": [
        -29.114301681518555,
        7.335070610046387,
        -17.769851684570313
      ],
      "type": "VEC3"
    },
    {
      "bufferView": 2,
      "byteOffset": 109944,
      "componentType": 5126,
      "count": 324,
      "max": [
        0.9989029169082642,
        0.9899075627326965,
        0.9950429201126099
      ],
      "min": [
        -0.7816712856292725,
        -0.9960829019546509,
        -0.9950608015060425
      ],
      "type": "VEC3"
    },
    {
      "bufferView": 1,
      "byteOffset": 35352,
      "componentType": 5126,
      "count": 324,
      "max": [
        0.9899380207061768,
        -0.010104999877512455
      ],
      "min": [
        0.008092000149190426,
        -0.9920179843902588
      ],
      "type": "VEC2"
    },
    {
      "bufferView": 0,
      "byteOffset": 41376,
      "componentType": 5125,
      "count": 774,
      "type": "SCALAR"
    },
    {
      "bufferView": 2,
      "byteOffset": 113832,
      "componentType": 5126,
      "count": 861,
      "max": [
        16.843751907348633,
        144.91348266601563,
        19.428922653198242
      ],
      "min": [
        -16.843849182128906,
        0.02749473787844181,
        -17.68817138671875
      ],
      "type": "VEC3"
    },
    {
      "bufferView": 2,
      "byteOffset": 124164,
      "componentType": 5126,
      "count": 861,
      "max": [
        0.9995965361595154,
        0.9997988939285278,
        0.9999995231628418
      ],
      "min": [
        -0.9996213912963867,
        -0.9996600151062012,
        -0.9999991655349731
      ],
      "type": "VEC3"
    },
    {
      "bufferView": 1,
      "byteOffset": 37944,
      "componentType": 5126,
      "count": 861,
      "max": [
        0.9854959845542908,
        -0.007973000407218933
      ],
      "min": [
        0.01082099974155426,
        -0.9916679859161377
      ],
      "type": "VEC2"
    },
    {
      "bufferView": 0,
      "byteOffset": 44472,
      "componentType": 5125,
      "count": 2058,
      "type": "SCALAR"
    },
    {
      "bufferView": 2,
      "byteOffset": 134496,
      "componentType": 5126,
      "count": 642,
      "max": [
        26.680700302124023,
        114.76010131835938,
        17.1202392578125
      ],
      "min": [
        -26.68071174621582,
        49.68894958496094,
        -23.13814926147461
      ],
      "type": "VEC3"
    },
    {
      "bufferView": 2,
      "byteOffset": 142200,
      "componentType": 5126,
      "count": 642,
      "max": [
        0.9994955062866211,
        0.9899075627326965,
        0.9971646070480347
      ],
      "min": [
        -0.8362866640090942,
        -0.9998987317085266,
        -0.9971644878387451
      ],
      "type": "VEC3"
    },
    {
      "bufferView": 1,
      "byteOffset": 44832,
      "componentType": 5126,
      "count": 642,
      "max": [
        0.9914979934692383,
        -0.009669999592006207
      ],
      "min": [
        0.012749000452458858,
        -0.9891499876976013
      ],
      "type": "VEC2"
    },
    {
      "bufferView": 0,
      "byteOffset": 52704,
      "componentType": 5125,
      "count": 1464,
      "type": "SCALAR"
    },
    {
      "bufferView": 2,
      "byteOffset": 149904,
      "componentType": 5126,
      "count": 415,
      "max": [
        29.11440086364746,
        139.25648498535156,
        26.92428207397461
      ],
      "min": [
        -29.114301681518555,
        7.335070610046387,
        -26.294116973876953
      ],
      "type": "VEC3"
    },
    {
      "bufferView": 2,
      "byteOffset": 154884,
      "componentType": 5126,
      "count": 415,
      "max": [
        0.9994955062866211,
        0.9960957765579224,
        0.9919081330299377
      ],
      "min": [
        -0.9942436814308167,
        -0.9940599203109741,
        -0.9919077754020691
      ],
      "type": "VEC3"
    },
    {
      "bufferView": 1,
      "byteOffset": 49968,
      "componentType": 5126,
      "count": 415,
      "max": [
        0.9867640137672424,
        -0.013117999769747257
      ],
      "min": [
        0.008035000413656235,
        -0.9925410151481628
      ],
      "type": "VEC2"
    },
    {
      "bufferView": 0,
      "byteOffset": 58560,
      "componentType": 5125,
      "count": 972,
      "type": "SCALAR"
    },
    {
      "bufferView": 2,
      "byteOffset": 159864,
      "componentType": 5126,
      "count": 369,
      "max": [
        10.904915809631348,
        132.98947143554688,
        17.039894104003906
      ],
      "min": [
        -10.90488338470459,
        108.49946594238281,
        3.1430585384368896
      ],
      "type": "VEC3"
    },
    {
      "bufferView": 2,
      "byteOffset": 164292,
      "componentType": 5126,
      "count": 369,
      "max": [
        0.6291854977607727,
        0.9999871850013733,
        0.9955886602401733
      ],
      "min": [
        -0.999669075012207,
        -0.31560584902763367,
        -0.996133029460907
      ],
      "type": "VEC3"
    },
    {
      "bufferView": 1,
      "byteOffset": 53288,
      "componentType": 5126,
      "count": 369,
      "max": [
        0.9881160259246826,
        -0.008337999694049358
      ],
      "min": [
        0.009157000109553337,
        -0.9845529794692993
      ],
      "type": "VEC2"
    },
    {
      "bufferView": 0,
      "byteOffset": 62448,
      "componentType": 5125,
      "count": 936,
      "type": "SCALAR"
    }
  ],
  "asset": {
    "extras": {
      "author": "shreyhaldkar0 (https://sketchfab.com/shreyhaldkar0)",
      "license": "CC-BY-4.0 (http://creativecommons.org/licenses/by/4.0/)",
      "source": "https://sketchfab.com/3d-models/grandma-616452b4932f45dca5450ac3f81c4d6a",
      "title": "Grandma"
    },
    "generator": "Sketchfab-16.21.0",
    "version": "2.0"
  },
  "bufferViews": [
    {
      "buffer": 0,
      "byteLength": 66192,
      "name": "floatBufferViews",
      "target": 34963
    },
    {
      "buffer": 0,
      "byteLength": 56240,
      "byteOffset": 66192,
      "byteStride": 8,
      "name": "floatBufferViews",
      "target": 34962
    },
    {
      "buffer": 0,
      "byteLength": 168720,
      "byteOffset": 122432,
      "byteStride": 12,
      "name": "floatBufferViews",
      "target": 34962
    }
  ],
  "buffers": [
    {
      "byteLength": 291152,
      "uri": "scene.bin"
    }
  ],
  "images": [
    {
      "uri": "textures/material000_baseColor.png"
    },
    {
      "uri": "textures/material001_baseColor.png"
    },
    {
      "uri": "textures/material002_baseColor.png"
    },
    {
      "uri": "textures/material003_baseColor.png"
    },
    {
      "uri": "textures/material004_baseColor.png"
    },
    {
      "uri": "textures/material005_baseColor.png"
    }
  ],
  "materials": [
    {
      "doubleSided": true,
      "name": "material000",
      "pbrMetallicRoughness": {
        "baseColorTexture": {
          "index": 0
        },
        "metallicFactor": 0.0
      }
    },
    {
      "doubleSided": true,
      "name": "material001",
      "pbrMetallicRoughness": {
        "baseColorTexture": {
          "index": 1
        },
        "metallicFactor": 0.0
      }
    },
    {
      "doubleSided": true,
      "name": "material002",
      "pbrMetallicRoughness": {
        "baseColorTexture": {
          "index": 2
        },
        "metallicFactor": 0.0
      }
    },
    {
      "doubleSided": true,
      "name": "material003",
      "pbrMetallicRoughness": {
        "baseColorTexture": {
          "index": 3
        },
        "metallicFactor": 0.0
      }
    },
    {
      "doubleSided": true,
      "name": "material004",
      "pbrMetallicRoughness": {
        "baseColorTexture": {
          "index": 4
        },
        "metallicFactor": 0.0
      }
    },
    {
      "doubleSided": true,
      "name": "material005",
      "pbrMetallicRoughness": {
        "baseColorTexture": {
          "index": 5
        },
        "metallicFactor": 0.0
      }
    }
  ],
  "meshes": [
    {
      "name": "Object_0",
      "primitives": [
        {
          "attributes": {
            "NORMAL": 1,
            "POSITION": 0,
            "TEXCOORD_0": 2
          },
          "indices": 3,
          "material": 0,
          "mode": 4
        }
      ]
    },
    {
      "name": "Object_1",
      "primitives": [
        {
          "attributes": {
            "NORMAL": 5,
            "POSITION": 4,
            "TEXCOORD_0": 6
          },
          "indices": 7,
          "material": 1,
          "mode": 4
        }
      ]
    },
    {
      "name": "Object_2",
      "primitives": [
        {
          "attributes": {
            "NORMAL": 9,
            "POSITION": 8,
            "TEXCOORD_0": 10
          },
          "indices": 11,
          "material": 2,
          "mode": 4
        }
      ]
    },
    {
      "name": "Object_3",
      "primitives": [
        {
          "attributes": {
            "NORMAL": 13,
            "POSITION": 12,
            "TEXCOORD_0": 14
          },
          "indices": 15,
          "material": 3,
          "mode": 4
        }
      ]
    },
    {
      "name": "Object_4",
      "primitives": [
        {
          "attributes": {
            "NORMAL": 17,
            "POSITION": 16,
            "TEXCOORD_0": 18
          },
          "indices": 19,
          "material": 4,
          "mode": 4
        }
      ]
    },
    {
      "name": "Object_5",
      "primitives": [
        {
          "attributes": {
            "NORMAL": 21,
            "POSITION": 20,
            "TEXCOORD_0": 22
          },
          "indices": 23,
          "material": 5,
          "mode": 4
        }
      ]
    },
    {
      "name": "Object_6",
      "primitives": [
        {
          "attributes": {
            "NORMAL": 25,
            "POSITION": 24,
            "TEXCOORD_0": 26
          },
          "indices": 27,
          "material": 5,
          "mode": 4
        }
      ]
    },
    {
      "name": "Object_7",
      "primitives": [
        {
          "attributes": {
            "NORMAL": 29,
            "POSITION": 28,
            "TEXCOORD_0": 30
          },
          "indices": 31,
          "material": 4,
          "mode": 4
        }
      ]
    },
    {
      "name": "Object_8",
      "primitives": [
        {
          "attributes": {
            "NORMAL": 33,
            "POSITION": 32,
            "TEXCOORD_0": 34
          },
          "indices": 35,
          "material": 3,
          "mode": 4
        }
      ]
    },
    {
      "name": "Object_9",
      "primitives": [
        {
          "attributes": {
            "NORMAL": 37,
            "POSITION": 36,
            "TEXCOORD_0": 38
          },
          "indices": 39,
          "material": 2,
          "mode": 4
        }
      ]
    },
    {
      "name": "Object_10",
      "primitives": [
        {
          "attributes": {
            "NORMAL": 41,
            "POSITION": 40,
            "TEXCOORD_0": 42
          },
          "indices": 43,
          "material": 1,
          "mode": 4
        }
      ]
    },
    {
      "name": "Object_11",
      "primitives": [
        {
          "attributes": {
            "NORMAL": 45,
            "POSITION": 44,
            "TEXCOORD_0": 46
          },
          "indices": 47,
          "material": 0,
          "mode": 4
        }
      ]
    }
  ],
  "nodes": [
    {
      "children": [
        1
      ],
      "matrix": [
        1.0,
        0.0,
        0.0,
        0.0,
        0.0,
        2.220446049250313e-16,
        -1.0,
        0.0,
        0.0,
        1.0,
        2.220446049250313e-16,
        0.0,
        0.0,
        0.0,
        0.0,
        1.0
      ],
      "name": "Sketchfab_model"
    },
    {
      "children": [
        2
      ],
      "matrix": [
        1.0,
        0.0,
        0.0,
        0.0,
        0.0,
        -4.371139006309477e-08,
        0.999999999999999,
        0.0,
        0.0,
        -0.999999999999999,
        -4.371139006309477e-08,
        0.0,
        0.0,
        0.0,
        0.0,
        1.0
      ],
      "name": "Collada visual scene group"
    },
    {
      "children": [
        3,
        4,
        5,
        6,
        7,
        8,
        9,
        10,
        11,
        12,
        13,
        14
      ],
      "name": "Object_2"
    },
    {
      "mesh": 0,
      "name": "Object_3"
    },
    {
      "mesh": 1,
      "name": "Object_4"
    },
    {
      "mesh": 2,
      "name": "Object_5"
    },
    {
      "mesh": 3,
      "name": "Object_6"
    },
    {
      "mesh": 4,
      "name": "Object_7"
    },
    {
      "mesh": 5,
      "name": "Object_8"
    },
    {
      "mesh": 6,
      "name": "Object_9"
    },
    {
      "mesh": 7,
      "name": "Object_10"
    },
    {
      "mesh": 8,
      "name": "Object_11"
    },
    {
      "mesh": 9,
      "name": "Object_12"
    },
    {
      "mesh": 10,
      "name": "Object_13"
    },
    {
      "mesh": 11,
      "name": "Object_14"
    }
  ],
  "samplers": [
    {
      "magFilter": 9729,
      "minFilter": 9987,
      "wrapS": 10497,
      "wrapT": 10497
    }
  ],
  "scene": 0,
  "scenes": [
    {
      "name": "Sketchfab_Scene",
      "nodes": [
        0
      ]
    }
  ],
  "textures": [
    {
      "sampler": 0,
      "source": 0
    },
    {
      "sampler": 0,
      "source": 1
    },
    {
      "sampler": 0,
      "source": 2
    },
    {
      "sampler": 0,
      "source": 3
    },
    {
      "sampler": 0,
      "source": 4
    },
    {
      "sampler": 0,
      "source": 5
    }
  ]
}
